<svg width="20" height="20" viewBox="0 0 20 20" fill="none" xmlns="http://www.w3.org/2000/svg">
  <path
    d="M11.5 16C11.5 15.1716 10.8284 14.5 10 14.5C9.17157 14.5 8.5 15.1716 8.5 16C8.5 16.8284 9.17157 17.5 10 17.5C10.8284 17.5 11.5 16.8284 11.5 16Z"
    fill="#757575" />
  <path
    d="M11.5 10C11.5 9.17157 10.8284 8.5 10 8.5C9.17157 8.5 8.5 9.17157 8.5 10C8.5 10.8284 9.17157 11.5 10 11.5C10.8284 11.5 11.5 10.8284 11.5 10Z"
    fill="#757575" />
  <path
    d="M11.5 4C11.5 3.17157 10.8284 2.5 10 2.5C9.17157 2.5 8.5 3.17157 8.5 4C8.5 4.82843 9.17157 5.5 10 5.5C10.8284 5.5 11.5 4.82843 11.5 4Z"
    fill="#757575" />
</svg>